<mxfile host="app.diagrams.net" modified="2021-07-29T07:42:11.912Z" agent="5.0 (Windows NT 10.0; Win64; x64) AppleWebKit/537.36 (KHTML, like Gecko) Chrome/92.0.4515.107 Safari/537.36 Edg/92.0.902.55" etag="hPJbxLJvvswtr0qDxJXE" version="14.9.3" type="github">
  <diagram id="C5RBs43oDa-KdzZeNtuy" name="Page-1">
    <mxGraphModel dx="1422" dy="1963" grid="1" gridSize="10" guides="1" tooltips="1" connect="1" arrows="1" fold="1" page="1" pageScale="1" pageWidth="827" pageHeight="1169" math="0" shadow="0">
      <root>
        <mxCell id="WIyWlLk6GJQsqaUBKTNV-0" />
        <mxCell id="WIyWlLk6GJQsqaUBKTNV-1" parent="WIyWlLk6GJQsqaUBKTNV-0" />
        <mxCell id="zkfFHV4jXpPFQw0GAbJ--0" value="EntitiesBaseContract" style="swimlane;fontStyle=2;align=center;verticalAlign=top;childLayout=stackLayout;horizontal=1;startSize=26;horizontalStack=0;resizeParent=1;resizeLast=0;collapsible=1;marginBottom=0;rounded=0;shadow=0;strokeWidth=1;" parent="WIyWlLk6GJQsqaUBKTNV-1" vertex="1">
          <mxGeometry x="190" y="90" width="180" height="500" as="geometry">
            <mxRectangle x="230" y="140" width="160" height="26" as="alternateBounds" />
          </mxGeometry>
        </mxCell>
        <mxCell id="zkfFHV4jXpPFQw0GAbJ--1" value="_Entities&#xa;&#xa;_entitiesLabel&#xa;&#xa;_minOwners&#xa;&#xa;_ownerId" style="text;align=left;verticalAlign=top;spacingLeft=4;spacingRight=4;overflow=hidden;rotatable=0;points=[[0,0.5],[1,0.5]];portConstraint=eastwest;" parent="zkfFHV4jXpPFQw0GAbJ--0" vertex="1">
          <mxGeometry y="26" width="180" height="114" as="geometry" />
        </mxCell>
        <mxCell id="zkfFHV4jXpPFQw0GAbJ--4" value="" style="line;html=1;strokeWidth=1;align=left;verticalAlign=middle;spacingTop=-1;spacingLeft=3;spacingRight=3;rotatable=0;labelPosition=right;points=[];portConstraint=eastwest;" parent="zkfFHV4jXpPFQw0GAbJ--0" vertex="1">
          <mxGeometry y="140" width="180" height="8" as="geometry" />
        </mxCell>
        <mxCell id="zkfFHV4jXpPFQw0GAbJ--2" value="addEntity&#xa;&#xa;removeEntity&#xa;&#xa;validateEntity&#xa;&#xa;rejectEntity&#xa;&#xa;" style="text;align=left;verticalAlign=top;spacingLeft=4;spacingRight=4;overflow=hidden;rotatable=0;points=[[0,0.5],[1,0.5]];portConstraint=eastwest;rounded=0;shadow=0;html=0;fontStyle=1" parent="zkfFHV4jXpPFQw0GAbJ--0" vertex="1">
          <mxGeometry y="148" width="180" height="112" as="geometry" />
        </mxCell>
        <mxCell id="zkfFHV4jXpPFQw0GAbJ--20" value="retrieveEntity&#xa;&#xa;retrieveAllEntities&#xa;&#xa;isEntity&#xa;&#xa;isEntityPendingToAdded&#xa;&#xa;isEntityPendingToRemoved&#xa;&#xa;retrievePendingEntities" style="text;align=left;verticalAlign=top;spacingLeft=4;spacingRight=4;overflow=hidden;rotatable=0;points=[[0,0.5],[1,0.5]];portConstraint=eastwest;rounded=0;shadow=0;html=0;" parent="zkfFHV4jXpPFQw0GAbJ--0" vertex="1">
          <mxGeometry y="260" width="180" height="170" as="geometry" />
        </mxCell>
        <mxCell id="zkfFHV4jXpPFQw0GAbJ--24" value="onItemValidated&#xa;&#xa;onItemRejected" style="text;align=left;verticalAlign=top;spacingLeft=4;spacingRight=4;overflow=hidden;rotatable=0;points=[[0,0.5],[1,0.5]];portConstraint=eastwest;fontColor=#FF0000;fontStyle=1" parent="zkfFHV4jXpPFQw0GAbJ--0" vertex="1">
          <mxGeometry y="430" width="180" height="70" as="geometry" />
        </mxCell>
        <mxCell id="zkfFHV4jXpPFQw0GAbJ--16" value="" style="endArrow=block;endSize=10;endFill=0;shadow=0;strokeWidth=1;rounded=0;edgeStyle=elbowEdgeStyle;elbow=vertical;exitX=0.5;exitY=0;exitDx=0;exitDy=0;" parent="WIyWlLk6GJQsqaUBKTNV-1" source="bXjURwCaFaU__5L7jMWQ-14" target="zkfFHV4jXpPFQw0GAbJ--0" edge="1">
          <mxGeometry width="160" relative="1" as="geometry">
            <mxPoint x="210" y="373" as="sourcePoint" />
            <mxPoint x="310" y="271" as="targetPoint" />
          </mxGeometry>
        </mxCell>
        <mxCell id="bXjURwCaFaU__5L7jMWQ-14" value="MultiSigContract" style="swimlane;fontStyle=2;align=center;verticalAlign=top;childLayout=stackLayout;horizontal=1;startSize=26;horizontalStack=0;resizeParent=1;resizeLast=0;collapsible=1;marginBottom=0;rounded=0;shadow=0;strokeWidth=1;" vertex="1" parent="WIyWlLk6GJQsqaUBKTNV-1">
          <mxGeometry x="380" y="690" width="200" height="350" as="geometry">
            <mxRectangle x="230" y="140" width="160" height="26" as="alternateBounds" />
          </mxGeometry>
        </mxCell>
        <mxCell id="bXjURwCaFaU__5L7jMWQ-15" value="&#xa;&#xa;" style="text;align=left;verticalAlign=top;spacingLeft=4;spacingRight=4;overflow=hidden;rotatable=0;points=[[0,0.5],[1,0.5]];portConstraint=eastwest;" vertex="1" parent="bXjURwCaFaU__5L7jMWQ-14">
          <mxGeometry y="26" width="200" height="64" as="geometry" />
        </mxCell>
        <mxCell id="bXjURwCaFaU__5L7jMWQ-16" value="" style="line;html=1;strokeWidth=1;align=left;verticalAlign=middle;spacingTop=-1;spacingLeft=3;spacingRight=3;rotatable=0;labelPosition=right;points=[];portConstraint=eastwest;" vertex="1" parent="bXjURwCaFaU__5L7jMWQ-14">
          <mxGeometry y="90" width="200" height="8" as="geometry" />
        </mxCell>
        <mxCell id="bXjURwCaFaU__5L7jMWQ-17" value="addOwner&#xa;&#xa;removeOwner&#xa;&#xa;validateOwner&#xa;&#xa;rejectOwner" style="text;align=left;verticalAlign=top;spacingLeft=4;spacingRight=4;overflow=hidden;rotatable=0;points=[[0,0.5],[1,0.5]];portConstraint=eastwest;rounded=0;shadow=0;html=0;fontColor=#FF0000;fontStyle=1" vertex="1" parent="bXjURwCaFaU__5L7jMWQ-14">
          <mxGeometry y="98" width="200" height="112" as="geometry" />
        </mxCell>
        <mxCell id="bXjURwCaFaU__5L7jMWQ-18" value="retrieveOwner&#xa;&#xa;retrieveAllOwners&#xa;&#xa;retrieveMinOwners&#xa;&#xa;isOwner&#xa;&#xa;retrievePendingOwners" style="text;align=left;verticalAlign=top;spacingLeft=4;spacingRight=4;overflow=hidden;rotatable=0;points=[[0,0.5],[1,0.5]];portConstraint=eastwest;rounded=0;shadow=0;html=0;fontColor=#FF0000;" vertex="1" parent="bXjURwCaFaU__5L7jMWQ-14">
          <mxGeometry y="210" width="200" height="140" as="geometry" />
        </mxCell>
        <mxCell id="bXjURwCaFaU__5L7jMWQ-20" value="Red : Exposed externally (public, external)" style="text;html=1;strokeColor=none;fillColor=none;align=center;verticalAlign=middle;whiteSpace=wrap;rounded=0;fontColor=#FF0000;" vertex="1" parent="WIyWlLk6GJQsqaUBKTNV-1">
          <mxGeometry x="120" y="-76" width="320" height="20" as="geometry" />
        </mxCell>
        <mxCell id="bXjURwCaFaU__5L7jMWQ-21" value="&lt;font color=&quot;#000000&quot;&gt;Black : Not Exposed externally (internal, private)&lt;/font&gt;" style="text;html=1;strokeColor=none;fillColor=none;align=center;verticalAlign=middle;whiteSpace=wrap;rounded=0;fontColor=#FF0000;" vertex="1" parent="WIyWlLk6GJQsqaUBKTNV-1">
          <mxGeometry x="120" y="-100" width="320" height="20" as="geometry" />
        </mxCell>
        <mxCell id="bXjURwCaFaU__5L7jMWQ-22" value="&lt;span style=&quot;font-weight: normal&quot;&gt;&lt;font color=&quot;#000000&quot;&gt;Regular : Does not Modify State (view, pure)&lt;/font&gt;&lt;/span&gt;" style="text;html=1;strokeColor=none;fillColor=none;align=center;verticalAlign=middle;whiteSpace=wrap;rounded=0;fontColor=#FF0000;fontStyle=1" vertex="1" parent="WIyWlLk6GJQsqaUBKTNV-1">
          <mxGeometry x="120" y="-51" width="320" height="20" as="geometry" />
        </mxCell>
        <mxCell id="bXjURwCaFaU__5L7jMWQ-23" value="&lt;b&gt;&lt;font color=&quot;#000000&quot;&gt;Bold : Modify State (transaction)&lt;/font&gt;&lt;/b&gt;" style="text;html=1;strokeColor=none;fillColor=none;align=center;verticalAlign=middle;whiteSpace=wrap;rounded=0;fontColor=#FF0000;" vertex="1" parent="WIyWlLk6GJQsqaUBKTNV-1">
          <mxGeometry x="120" y="-27" width="320" height="20" as="geometry" />
        </mxCell>
        <mxCell id="bXjURwCaFaU__5L7jMWQ-24" value="MultiSigCertificatesPool" style="swimlane;fontStyle=2;align=center;verticalAlign=top;childLayout=stackLayout;horizontal=1;startSize=26;horizontalStack=0;resizeParent=1;resizeLast=0;collapsible=1;marginBottom=0;rounded=0;shadow=0;strokeWidth=1;" vertex="1" parent="WIyWlLk6GJQsqaUBKTNV-1">
          <mxGeometry x="380" y="1130" width="200" height="630" as="geometry">
            <mxRectangle x="230" y="140" width="160" height="26" as="alternateBounds" />
          </mxGeometry>
        </mxCell>
        <mxCell id="bXjURwCaFaU__5L7jMWQ-25" value="TotalEntities&#xa;&#xa;_ownersIdCertificates&#xa;&#xa;_ownerLabel&#xa;&#xa;_providerId&#xa;&#xa;_providerLabel&#xa;&#xa;_Label&#xa;&#xa;_CertificatesPerHolder" style="text;align=left;verticalAlign=top;spacingLeft=4;spacingRight=4;overflow=hidden;rotatable=0;points=[[0,0.5],[1,0.5]];portConstraint=eastwest;" vertex="1" parent="bXjURwCaFaU__5L7jMWQ-24">
          <mxGeometry y="26" width="200" height="204" as="geometry" />
        </mxCell>
        <mxCell id="bXjURwCaFaU__5L7jMWQ-26" value="" style="line;html=1;strokeWidth=1;align=left;verticalAlign=middle;spacingTop=-1;spacingLeft=3;spacingRight=3;rotatable=0;labelPosition=right;points=[];portConstraint=eastwest;" vertex="1" parent="bXjURwCaFaU__5L7jMWQ-24">
          <mxGeometry y="230" width="200" height="8" as="geometry" />
        </mxCell>
        <mxCell id="bXjURwCaFaU__5L7jMWQ-27" value="addProvider&#xa;&#xa;removeProvider&#xa;&#xa;validateProvider&#xa;&#xa;rejectProvider" style="text;align=left;verticalAlign=top;spacingLeft=4;spacingRight=4;overflow=hidden;rotatable=0;points=[[0,0.5],[1,0.5]];portConstraint=eastwest;rounded=0;shadow=0;html=0;fontColor=#FF0000;fontStyle=1" vertex="1" parent="bXjURwCaFaU__5L7jMWQ-24">
          <mxGeometry y="238" width="200" height="112" as="geometry" />
        </mxCell>
        <mxCell id="bXjURwCaFaU__5L7jMWQ-28" value="retrieveProvider&#xa;&#xa;retrieveAllProviders&#xa;&#xa;isProvider&#xa;&#xa;retrievePendingProviders" style="text;align=left;verticalAlign=top;spacingLeft=4;spacingRight=4;overflow=hidden;rotatable=0;points=[[0,0.5],[1,0.5]];portConstraint=eastwest;rounded=0;shadow=0;html=0;fontColor=#FF0000;" vertex="1" parent="bXjURwCaFaU__5L7jMWQ-24">
          <mxGeometry y="350" width="200" height="120" as="geometry" />
        </mxCell>
        <mxCell id="bXjURwCaFaU__5L7jMWQ-29" value="addCertificate&#xa;" style="text;align=left;verticalAlign=top;spacingLeft=4;spacingRight=4;overflow=hidden;rotatable=0;points=[[0,0.5],[1,0.5]];portConstraint=eastwest;rounded=0;shadow=0;html=0;fontColor=#FF0000;fontStyle=1" vertex="1" parent="bXjURwCaFaU__5L7jMWQ-24">
          <mxGeometry y="470" width="200" height="30" as="geometry" />
        </mxCell>
        <mxCell id="bXjURwCaFaU__5L7jMWQ-30" value="retrieveCertificateProvider&#xa;&#xa;retrieveTotalCertificatesByHolder&#xa;&#xa;retrieveCertificatesByHolder&#xa;" style="text;align=left;verticalAlign=top;spacingLeft=4;spacingRight=4;overflow=hidden;rotatable=0;points=[[0,0.5],[1,0.5]];portConstraint=eastwest;rounded=0;shadow=0;html=0;fontColor=#FF0000;" vertex="1" parent="bXjURwCaFaU__5L7jMWQ-24">
          <mxGeometry y="500" width="200" height="90" as="geometry" />
        </mxCell>
        <mxCell id="bXjURwCaFaU__5L7jMWQ-31" value="addCertificateInternal" style="text;align=left;verticalAlign=top;spacingLeft=4;spacingRight=4;overflow=hidden;rotatable=0;points=[[0,0.5],[1,0.5]];portConstraint=eastwest;fontStyle=1" vertex="1" parent="bXjURwCaFaU__5L7jMWQ-24">
          <mxGeometry y="590" width="200" height="30" as="geometry" />
        </mxCell>
        <mxCell id="bXjURwCaFaU__5L7jMWQ-32" value="" style="endArrow=block;endSize=10;endFill=0;shadow=0;strokeWidth=1;rounded=0;edgeStyle=elbowEdgeStyle;elbow=vertical;entryX=0.503;entryY=1.019;entryDx=0;entryDy=0;entryPerimeter=0;exitX=0.5;exitY=0;exitDx=0;exitDy=0;" edge="1" parent="WIyWlLk6GJQsqaUBKTNV-1" source="bXjURwCaFaU__5L7jMWQ-24" target="bXjURwCaFaU__5L7jMWQ-18">
          <mxGeometry width="160" relative="1" as="geometry">
            <mxPoint x="320" y="1130" as="sourcePoint" />
            <mxPoint x="320" y="1070" as="targetPoint" />
          </mxGeometry>
        </mxCell>
        <mxCell id="bXjURwCaFaU__5L7jMWQ-33" value="PrivateCertificatesPool" style="swimlane;fontStyle=1;align=center;verticalAlign=top;childLayout=stackLayout;horizontal=1;startSize=26;horizontalStack=0;resizeParent=1;resizeLast=0;collapsible=1;marginBottom=0;rounded=0;shadow=0;strokeWidth=1;fillColor=#f8cecc;strokeColor=#b85450;" vertex="1" parent="WIyWlLk6GJQsqaUBKTNV-1">
          <mxGeometry x="600" y="1830" width="200" height="50" as="geometry">
            <mxRectangle x="230" y="140" width="160" height="26" as="alternateBounds" />
          </mxGeometry>
        </mxCell>
        <mxCell id="bXjURwCaFaU__5L7jMWQ-35" value="" style="line;html=1;strokeWidth=1;align=left;verticalAlign=middle;spacingTop=-1;spacingLeft=3;spacingRight=3;rotatable=0;labelPosition=right;points=[];portConstraint=eastwest;" vertex="1" parent="bXjURwCaFaU__5L7jMWQ-33">
          <mxGeometry y="26" width="200" height="8" as="geometry" />
        </mxCell>
        <mxCell id="bXjURwCaFaU__5L7jMWQ-41" value="" style="endArrow=block;endSize=10;endFill=0;shadow=0;strokeWidth=1;rounded=0;edgeStyle=elbowEdgeStyle;elbow=vertical;exitX=0.5;exitY=0;exitDx=0;exitDy=0;" edge="1" parent="WIyWlLk6GJQsqaUBKTNV-1" source="bXjURwCaFaU__5L7jMWQ-33">
          <mxGeometry width="160" relative="1" as="geometry">
            <mxPoint x="400" y="1840" as="sourcePoint" />
            <mxPoint x="470" y="1760" as="targetPoint" />
          </mxGeometry>
        </mxCell>
        <mxCell id="bXjURwCaFaU__5L7jMWQ-42" value="PublicCertificatesPool" style="swimlane;fontStyle=1;align=center;verticalAlign=top;childLayout=stackLayout;horizontal=1;startSize=26;horizontalStack=0;resizeParent=1;resizeLast=0;collapsible=1;marginBottom=0;rounded=0;shadow=0;strokeWidth=1;fillColor=#f8cecc;strokeColor=#b85450;" vertex="1" parent="WIyWlLk6GJQsqaUBKTNV-1">
          <mxGeometry x="210" y="1830" width="200" height="130" as="geometry">
            <mxRectangle x="230" y="140" width="160" height="26" as="alternateBounds" />
          </mxGeometry>
        </mxCell>
        <mxCell id="bXjURwCaFaU__5L7jMWQ-44" value="Treasury" style="text;align=left;verticalAlign=top;spacingLeft=4;spacingRight=4;overflow=hidden;rotatable=0;points=[[0,0.5],[1,0.5]];portConstraint=eastwest;" vertex="1" parent="bXjURwCaFaU__5L7jMWQ-42">
          <mxGeometry y="26" width="200" height="34" as="geometry" />
        </mxCell>
        <mxCell id="bXjURwCaFaU__5L7jMWQ-43" value="" style="line;html=1;strokeWidth=1;align=left;verticalAlign=middle;spacingTop=-1;spacingLeft=3;spacingRight=3;rotatable=0;labelPosition=right;points=[];portConstraint=eastwest;" vertex="1" parent="WIyWlLk6GJQsqaUBKTNV-1">
          <mxGeometry x="210" y="1886" width="200" height="8" as="geometry" />
        </mxCell>
        <mxCell id="bXjURwCaFaU__5L7jMWQ-45" value="updateContracts&#xa;" style="text;align=left;verticalAlign=top;spacingLeft=4;spacingRight=4;overflow=hidden;rotatable=0;points=[[0,0.5],[1,0.5]];portConstraint=eastwest;rounded=0;shadow=0;html=0;fontColor=#FF0000;fontStyle=1" vertex="1" parent="WIyWlLk6GJQsqaUBKTNV-1">
          <mxGeometry x="210" y="1900" width="200" height="30" as="geometry" />
        </mxCell>
        <mxCell id="bXjURwCaFaU__5L7jMWQ-46" value="payBack" style="text;align=left;verticalAlign=top;spacingLeft=4;spacingRight=4;overflow=hidden;rotatable=0;points=[[0,0.5],[1,0.5]];portConstraint=eastwest;fontStyle=1" vertex="1" parent="WIyWlLk6GJQsqaUBKTNV-1">
          <mxGeometry x="210" y="1932" width="200" height="30" as="geometry" />
        </mxCell>
        <mxCell id="bXjURwCaFaU__5L7jMWQ-47" value="" style="endArrow=block;endSize=10;endFill=0;shadow=0;strokeWidth=1;rounded=0;edgeStyle=elbowEdgeStyle;elbow=vertical;exitX=0.5;exitY=0;exitDx=0;exitDy=0;" edge="1" parent="WIyWlLk6GJQsqaUBKTNV-1" source="bXjURwCaFaU__5L7jMWQ-42">
          <mxGeometry width="160" relative="1" as="geometry">
            <mxPoint x="220" y="1700" as="sourcePoint" />
            <mxPoint x="470" y="1760" as="targetPoint" />
          </mxGeometry>
        </mxCell>
        <mxCell id="bXjURwCaFaU__5L7jMWQ-48" value="ManagedBaseContract" style="swimlane;fontStyle=2;align=center;verticalAlign=top;childLayout=stackLayout;horizontal=1;startSize=26;horizontalStack=0;resizeParent=1;resizeLast=0;collapsible=1;marginBottom=0;rounded=0;shadow=0;strokeWidth=1;" vertex="1" parent="WIyWlLk6GJQsqaUBKTNV-1">
          <mxGeometry x="20" y="690" width="180" height="90" as="geometry">
            <mxRectangle x="230" y="140" width="160" height="26" as="alternateBounds" />
          </mxGeometry>
        </mxCell>
        <mxCell id="bXjURwCaFaU__5L7jMWQ-49" value="_managerContract" style="text;align=left;verticalAlign=top;spacingLeft=4;spacingRight=4;overflow=hidden;rotatable=0;points=[[0,0.5],[1,0.5]];portConstraint=eastwest;" vertex="1" parent="bXjURwCaFaU__5L7jMWQ-48">
          <mxGeometry y="26" width="180" height="34" as="geometry" />
        </mxCell>
        <mxCell id="bXjURwCaFaU__5L7jMWQ-50" value="" style="line;html=1;strokeWidth=1;align=left;verticalAlign=middle;spacingTop=-1;spacingLeft=3;spacingRight=3;rotatable=0;labelPosition=right;points=[];portConstraint=eastwest;" vertex="1" parent="bXjURwCaFaU__5L7jMWQ-48">
          <mxGeometry y="60" width="180" height="8" as="geometry" />
        </mxCell>
        <mxCell id="bXjURwCaFaU__5L7jMWQ-54" value="TokenGovernanceBaseContract" style="swimlane;fontStyle=2;align=center;verticalAlign=top;childLayout=stackLayout;horizontal=1;startSize=26;horizontalStack=0;resizeParent=1;resizeLast=0;collapsible=1;marginBottom=0;rounded=0;shadow=0;strokeWidth=1;" vertex="1" parent="WIyWlLk6GJQsqaUBKTNV-1">
          <mxGeometry x="720" y="100" width="210" height="681" as="geometry">
            <mxRectangle x="230" y="140" width="160" height="26" as="alternateBounds" />
          </mxGeometry>
        </mxCell>
        <mxCell id="bXjURwCaFaU__5L7jMWQ-55" value="_chairperson&#xa;&#xa;_certisToken&#xa;&#xa;Proposition&#xa;&#xa;_PropositionLifeTime&#xa;&#xa;_PropositionThresholdPercentage&#xa;&#xa;_minWeightToProposePercentage&#xa;&#xa;_ProposedProposition&#xa;&#xa;_currentPropisProp" style="text;align=left;verticalAlign=top;spacingLeft=4;spacingRight=4;overflow=hidden;rotatable=0;points=[[0,0.5],[1,0.5]];portConstraint=eastwest;" vertex="1" parent="bXjURwCaFaU__5L7jMWQ-54">
          <mxGeometry y="26" width="210" height="244" as="geometry" />
        </mxCell>
        <mxCell id="bXjURwCaFaU__5L7jMWQ-57" value="updateProp&#xa;&#xa;cancelProposition&#xa;&#xa;voteProposition" style="text;align=left;verticalAlign=top;spacingLeft=4;spacingRight=4;overflow=hidden;rotatable=0;points=[[0,0.5],[1,0.5]];portConstraint=eastwest;rounded=0;shadow=0;html=0;fontStyle=1;fontColor=#FF0000;" vertex="1" parent="bXjURwCaFaU__5L7jMWQ-54">
          <mxGeometry y="270" width="210" height="90" as="geometry" />
        </mxCell>
        <mxCell id="bXjURwCaFaU__5L7jMWQ-58" value="InternalupdateProp&#xa;&#xa;addProposition&#xa;&#xa;checkProposition&#xa;&#xa;removePropositionProp&#xa;&#xa;InternalCancelProposition&#xa;&#xa;propositionApproved&#xa;&#xa;propositionRejected&#xa;&#xa;propositionExpired" style="text;align=left;verticalAlign=top;spacingLeft=4;spacingRight=4;overflow=hidden;rotatable=0;points=[[0,0.5],[1,0.5]];portConstraint=eastwest;rounded=0;shadow=0;html=0;fontStyle=1" vertex="1" parent="bXjURwCaFaU__5L7jMWQ-54">
          <mxGeometry y="360" width="210" height="230" as="geometry" />
        </mxCell>
        <mxCell id="bXjURwCaFaU__5L7jMWQ-59" value="retrievePropConfig&#xa;&#xa;retrievePropositionStatus&#xa;&#xa;retrieveProposition" style="text;align=left;verticalAlign=top;spacingLeft=4;spacingRight=4;overflow=hidden;rotatable=0;points=[[0,0.5],[1,0.5]];portConstraint=eastwest;fontStyle=0" vertex="1" parent="bXjURwCaFaU__5L7jMWQ-54">
          <mxGeometry y="590" width="210" height="91" as="geometry" />
        </mxCell>
        <mxCell id="bXjURwCaFaU__5L7jMWQ-56" value="" style="line;html=1;strokeWidth=1;align=left;verticalAlign=middle;spacingTop=-1;spacingLeft=3;spacingRight=3;rotatable=0;labelPosition=right;points=[];portConstraint=eastwest;" vertex="1" parent="WIyWlLk6GJQsqaUBKTNV-1">
          <mxGeometry x="720" y="360" width="210" height="8" as="geometry" />
        </mxCell>
      </root>
    </mxGraphModel>
  </diagram>
</mxfile>
